<?xml version="1.0" encoding="UTF-8"?>
<svg width="131px" height="982px" viewBox="0 0 131 982" version="1.1" xmlns="http://www.w3.org/2000/svg" xmlns:xlink="http://www.w3.org/1999/xlink">
    <!-- Generator: Sketch 45.2 (43514) - http://www.bohemiancoding.com/sketch -->
    <title>bg-txt</title>
    <desc>Created with Sketch.</desc>
    <defs></defs>
    <g id="Design-Product" stroke="none" stroke-width="1" fill="none" fill-rule="evenodd" fill-opacity="0.02">
        <g id="service-copy-2" transform="translate(-371.000000, -913.000000)" fill="#000000">
            <path d="M42.3,1379.84 C42.3,1388.36004 39.2400306,1396.57996 33.12,1404.5 C29.8799838,1408.58002 25.0500321,1411.90999 18.63,1414.49 C12.2099679,1417.07001 4.6200438,1418.36 -4.14,1418.36 L-23.22,1418.36 L-23.22,1467.5 L-54,1467.5 L-54,1341.14 L-4.14,1341.14 C10.5000732,1341.14 21.8999592,1344.91996 30.06,1352.48 C38.2200408,1360.04004 42.3,1369.15995 42.3,1379.84 Z M-23.22,1394.96 L-4.14,1394.96 C0.5400234,1394.96 4.2299865,1393.58001 6.93,1390.82 C9.6300135,1388.05999 10.98,1384.43002 10.98,1379.93 C10.98,1375.42998 9.6000138,1371.74001 6.84,1368.86 C4.0799862,1365.97999 0.4200228,1364.54 -4.14,1364.54 L-23.22,1364.54 L-23.22,1394.96 Z M91.62,1418.36 L91.62,1467.5 L60.84,1467.5 L60.84,1341.14 L110.7,1341.14 C125.340073,1341.14 136.739959,1344.91996 144.9,1352.48 C153.060041,1360.04004 157.14,1369.15995 157.14,1379.84 C157.14,1387.16004 154.920022,1394.29997 150.48,1401.26 C146.039978,1408.22003 138.78005,1413.13999 128.7,1416.02 L159.66,1467.5 L123.66,1467.5 L95.22,1418.36 L91.62,1418.36 Z M91.62,1364.54 L91.62,1394.96 L110.7,1394.96 C115.380023,1394.96 119.069986,1393.58001 121.77,1390.82 C124.470013,1388.05999 125.82,1384.43002 125.82,1379.93 C125.82,1375.42998 124.440014,1371.74001 121.68,1368.86 C118.919986,1365.97999 115.260023,1364.54 110.7,1364.54 L91.62,1364.54 Z M271.8,1403.96 C271.8,1392.91994 268.77003,1384.10003 262.71,1377.5 C256.64997,1370.89997 248.550051,1367.6 238.41,1367.6 C228.269949,1367.6 220.17003,1370.89997 214.11,1377.5 C208.04997,1384.10003 205.02,1392.91994 205.02,1403.96 C205.02,1415.00006 208.04997,1423.81997 214.11,1430.42 C220.17003,1437.02003 228.269949,1440.32 238.41,1440.32 C248.550051,1440.32 256.64997,1437.02003 262.71,1430.42 C268.77003,1423.81997 271.8,1415.00006 271.8,1403.96 Z M173.7,1403.96 C173.7,1385.23991 179.969937,1369.79006 192.51,1357.61 C205.050063,1345.42994 220.409909,1339.34 238.59,1339.34 C256.770091,1339.34 272.069938,1345.42994 284.49,1357.61 C296.910062,1369.79006 303.12,1385.23991 303.12,1403.96 C303.12,1422.68009 296.880062,1438.15994 284.4,1450.4 C271.919938,1462.64006 256.620091,1468.76 238.5,1468.76 C220.379909,1468.76 205.050063,1462.64006 192.51,1450.4 C179.969937,1438.15994 173.7,1422.68009 173.7,1403.96 Z M353.7,1444.1 L367.38,1444.1 C379.140059,1444.1 388.379966,1440.50004 395.1,1433.3 C401.820034,1426.09996 405.18,1416.44006 405.18,1404.32 C405.18,1392.19994 401.820034,1382.54004 395.1,1375.34 C388.379966,1368.13996 379.140059,1364.54 367.38,1364.54 L353.7,1364.54 L353.7,1444.1 Z M367.38,1341.14 C387.540101,1341.14 404.099935,1346.98994 417.06,1358.69 C430.020065,1370.39006 436.5,1385.56991 436.5,1404.23 C436.5,1422.89009 430.020065,1438.09994 417.06,1449.86 C404.099935,1461.62006 387.540101,1467.5 367.38,1467.5 L322.92,1467.5 L322.92,1341.14 L367.38,1341.14 Z M455.4,1416.56 L455.4,1341.14 L486.18,1341.14 L486.18,1416.56 C486.18,1424.12004 488.039981,1429.93998 491.76,1434.02 C495.480019,1438.10002 500.939964,1440.14 508.14,1440.14 C515.340036,1440.14 520.859981,1438.10002 524.7,1434.02 C528.540019,1429.93998 530.46,1424.12004 530.46,1416.56 L530.46,1341.14 L561.24,1341.14 L561.24,1416.56 C561.24,1427.72006 558.630026,1437.34996 553.41,1445.45 C548.189974,1453.55004 541.59004,1459.45998 533.61,1463.18 C525.62996,1466.90002 516.960047,1468.76 507.6,1468.76 C492.959927,1468.76 480.60005,1464.20005 470.52,1455.08 C460.43995,1445.95995 455.4,1433.12008 455.4,1416.56 Z M580.14,1403.96 C580.14,1385.23991 586.409937,1369.79006 598.95,1357.61 C611.490063,1345.42994 626.819909,1339.34 644.94,1339.34 C658.98007,1339.34 671.459945,1343.05996 682.38,1350.5 C693.300055,1357.94004 700.919978,1368.25993 705.24,1381.46 L668.52,1381.46 C663.719976,1372.21995 656.040053,1367.6 645.48,1367.6 C634.919947,1367.6 626.61003,1370.89997 620.55,1377.5 C614.48997,1384.10003 611.46,1392.91994 611.46,1403.96 C611.46,1415.00006 614.48997,1423.81997 620.55,1430.42 C626.61003,1437.02003 634.919947,1440.32 645.48,1440.32 C656.040053,1440.32 663.719976,1435.70005 668.52,1426.46 L705.24,1426.46 C700.919978,1439.66007 693.300055,1449.97996 682.38,1457.42 C671.459945,1464.86004 658.98007,1468.58 644.94,1468.58 C626.819909,1468.58 611.490063,1462.49006 598.95,1450.31 C586.409937,1438.12994 580.14,1422.68009 580.14,1403.96 Z M716.4,1364.54 L716.4,1341.14 L816.12,1341.14 L816.12,1364.54 L781.56,1364.54 L781.56,1467.5 L750.78,1467.5 L750.78,1364.54 L716.4,1364.54 Z M867.87,1366.7 C865.409988,1368.74001 864.18,1371.67998 864.18,1375.52 C864.18,1379.36002 865.319989,1382.44999 867.6,1384.79 C869.880011,1387.13001 872.849982,1388.92999 876.51,1390.19 C880.170018,1391.45001 884.249977,1392.64999 888.75,1393.79 C893.250023,1394.93001 897.719978,1396.30999 902.16,1397.93 C906.600022,1399.55001 910.649982,1401.55999 914.31,1403.96 C917.970018,1406.36001 920.939989,1409.74998 923.22,1414.13 C925.500011,1418.51002 926.64,1423.75997 926.64,1429.88 C926.64,1440.56005 922.290044,1449.70996 913.59,1457.33 C904.889957,1464.95004 893.430071,1468.76 879.21,1468.76 C864.989929,1468.76 853.530044,1465.34003 844.83,1458.5 C836.129956,1451.65997 831.78,1441.94006 831.78,1429.34 L864.54,1429.34 C865.380004,1439.42005 870.539953,1444.46 880.02,1444.46 C884.460022,1444.46 887.939987,1443.29001 890.46,1440.95 C892.980013,1438.60999 894.24,1435.64002 894.24,1432.04 C894.24,1428.43998 893.100011,1425.50001 890.82,1423.22 C888.539989,1420.93999 885.570018,1419.14001 881.91,1417.82 C878.249982,1416.49999 874.170023,1415.27001 869.67,1414.13 C865.169978,1412.98999 860.700022,1411.58001 856.26,1409.9 C851.819978,1408.21999 847.770018,1406.21001 844.11,1403.87 C840.449982,1401.52999 837.480011,1398.17002 835.2,1393.79 C832.919989,1389.40998 831.78,1384.22003 831.78,1378.22 C831.78,1366.45994 836.159956,1357.04004 844.92,1349.96 C853.680044,1342.87996 864.869932,1339.34 878.49,1339.34 C892.110068,1339.34 903.119958,1342.42997 911.52,1348.61 C919.920042,1354.79003 924.299998,1364.53993 924.66,1377.86 L891.18,1377.86 C890.699998,1373.29998 889.230012,1369.79001 886.77,1367.33 C884.309988,1364.86999 881.160019,1363.64 877.32,1363.64 C873.479981,1363.64 870.330012,1364.65999 867.87,1366.7 Z" id="bg-txt" transform="translate(436.320000, 1404.050000) rotate(-90.000000) translate(-436.320000, -1404.050000) "></path>
        </g>
    </g>
</svg>