<?xml version="1.0" encoding="UTF-8"?>
<svg width="377px" height="30px" viewBox="0 0 377 30" version="1.1" xmlns="http://www.w3.org/2000/svg" xmlns:xlink="http://www.w3.org/1999/xlink">
    <!-- Generator: Sketch 45.2 (43514) - http://www.bohemiancoding.com/sketch -->
    <title>people-logo</title>
    <desc>Created with Sketch.</desc>
    <defs></defs>
    <g id="Design-Product" stroke="none" stroke-width="1" fill="none" fill-rule="evenodd" fill-opacity="0.6">
        <path d="M51.4885106,5.1578473 L55.766725,5.1578473 L66.5322319,29.7775719 L61.4343596,29.7775719 L59.0153692,24.0199749 L48.1798915,24.0199749 L45.7309136,29.7775719 L40.7329995,29.7775719 L51.4885106,5.1578473 Z M49.9291614,19.711773 L57.2261159,19.711773 L53.557647,11.2353108 L49.9291614,19.711773 Z M87.8833207,21.2511306 L87.8833207,5.32777638 L92.6113474,5.32777638 L92.6113474,29.7875678 L88.6529995,29.7875678 L75.948302,13.3944097 L75.948302,29.7875678 L71.2202753,29.7875678 L71.2202753,5.32777638 L75.5584647,5.32777638 L87.8833207,21.2511306 Z M98.4888944,9.8159032 L98.4888944,5.32777638 L118.440567,5.32777638 L118.440567,9.8159032 L110.873725,9.8159032 L110.873725,29.7875678 L106.04574,29.7875678 L106.04574,9.8159032 L98.4888944,9.8159032 Z M129.276045,19.6318064 L129.276045,25.4393825 L142.940342,25.4393825 L142.940342,29.7875678 L124.488043,29.7875678 L124.488043,5.32777638 L142.770413,5.32777638 L142.770413,9.68595744 L129.276045,9.68595744 L129.276045,15.2836212 L141.241051,15.2836212 L141.241051,19.6318064 L129.276045,19.6318064 Z M158.893684,5.32777638 C166.390555,5.32777638 171.88826,10.3256904 171.88826,17.4827034 C171.88826,24.6397163 166.410546,29.7775719 158.893684,29.7775719 L149.697522,29.7775719 L149.697522,5.32777638 L158.893684,5.32777638 Z M158.893684,25.3194326 L158.893684,25.3694117 C163.671689,25.3694117 166.88035,22.2607092 166.890346,17.6626283 C166.981496,15.5257891 166.164093,13.4501784 164.64036,11.9493021 C163.116628,10.4484258 161.028901,9.6624829 158.893684,9.78591572 L154.495519,9.78591572 L154.495519,25.3194326 L158.893684,25.3194326 Z M183.023613,5.32777638 L183.023613,25.3694117 L195.558381,25.3694117 L195.558381,29.7875678 L178.225615,29.7875678 L178.225615,5.32777638 L183.023613,5.32777638 Z M206.403855,15.6034877 L212.98111,5.32777638 L218.508802,5.32777638 L208.782862,20.0716228 L208.782862,29.7875678 L203.954877,29.7875678 L203.954877,20.1715811 L194.228936,5.32777638 L199.926558,5.32777638 L206.403855,15.6034877 Z M38.5239215,-1.77635684e-15 L43.8816854,-1.77635684e-15 L31.0270505,29.7875678 L26.4789487,29.7875678 L21.9608344,19.3419274 L17.4427201,29.7875678 L12.9046141,29.7875678 L0,-1.77635684e-15 L5.49770546,-1.77635684e-15 L15.2436379,23.6801168 L19.421894,13.4943679 L13.5743346,-1.77635684e-15 L19.07204,-1.77635684e-15 L22.0208093,7.15701293 L24.949587,-1.77635684e-15 L30.3073508,-1.77635684e-15 L24.5597497,13.3244389 L28.8279683,23.6801168 L38.5239215,-1.77635684e-15 Z M240.539608,5.52769294 C246.017321,5.52769294 249.56584,8.53643721 249.525857,13.1745014 C249.525857,18.7321819 244.777839,21.1711639 240.059808,21.1711639 L234.362186,21.1711639 L234.362186,29.5876512 L231.543362,29.5876512 L231.543362,5.52769294 L240.539608,5.52769294 Z M240.199749,18.5222695 L240.199749,18.5122737 C244.048143,18.5122737 246.637063,16.4431372 246.66705,13.3644222 C246.66705,10.0657989 244.358014,8.21657071 240.359683,8.21657071 L234.362186,8.21657071 L234.362186,18.5222695 L240.199749,18.5222695 Z M258.871956,18.782161 L258.871956,26.9287609 L273.585815,26.9287609 L273.585815,29.5876512 L255.973166,29.5876512 L255.973166,5.53768877 L273.415886,5.53768877 L273.415886,8.18658322 L258.871956,8.18658322 L258.871956,16.1332666 L271.886525,16.1332666 L271.886525,18.782161 L258.871956,18.782161 Z M291.758231,5.12785982 C295.046046,5.06050481 298.21733,6.34594263 300.530338,8.68351757 C302.843347,11.0210925 304.09521,14.205779 303.993124,17.4926992 C304.060455,20.7929226 302.793593,23.9807574 300.479336,26.3345257 C298.16508,28.6882939 294.999146,30.0089366 291.698256,29.9974802 C288.410441,30.0648352 285.239157,28.7793973 282.926149,26.4418224 C280.61314,24.1042475 279.361277,20.919561 279.463362,17.6326408 C279.396032,14.3324173 280.662894,11.1445825 282.977151,8.79081432 C285.291407,6.4370461 288.457341,5.11640337 291.758231,5.12785982 Z M291.758231,27.3086024 C297.016036,27.3086024 300.994376,23.1703296 300.994376,17.6326408 C300.994376,12.094952 296.926074,7.81673758 291.68826,7.81673758 C286.450446,7.81673758 282.452115,11.9550104 282.452115,17.4926992 C282.452115,23.030388 286.540409,27.3086024 291.758231,27.3086024 Z M320.206358,5.52769294 C325.694067,5.52769294 329.23259,8.53643721 329.262578,13.1745014 C329.262578,18.7321819 324.51456,21.1711639 319.796529,21.1711639 L314.098907,21.1711639 L314.098907,29.5876512 L311.210112,29.5876512 L311.210112,5.52769294 L320.206358,5.52769294 Z M319.8665,18.5222695 L319.8665,18.5122737 C323.724889,18.5122737 326.323804,16.4431372 326.303813,13.3644222 C326.303813,10.0657989 323.994777,8.21657071 319.996445,8.21657071 L314.068919,8.21657071 L314.068919,18.5222695 L319.8665,18.5222695 Z M338.538706,5.53768877 L338.538706,26.8987734 L351.963104,26.8987734 L351.963104,29.5876512 L335.649912,29.5876512 L335.649912,5.53768877 L338.538706,5.53768877 Z M361.33919,26.9287609 L376.063045,26.9287609 L376.063045,29.5876512 L358.450396,29.5876512 L358.450396,5.53768877 L375.893116,5.53768877 L375.893116,8.18658322 L361.33919,8.18658322 L361.33919,16.1332666 L374.353759,16.1332666 L374.353759,18.782161 L361.33919,18.782161 L361.33919,26.9287609 Z" id="people-logo" fill="#000000" fill-rule="nonzero"></path>
    </g>
</svg>