<?xml version="1.0" encoding="UTF-8"?>
<svg width="323px" height="30px" viewBox="0 0 323 30" version="1.1" xmlns="http://www.w3.org/2000/svg" xmlns:xlink="http://www.w3.org/1999/xlink">
    <!-- Generator: Sketch 45.2 (43514) - http://www.bohemiancoding.com/sketch -->
    <title>visit-logo</title>
    <desc>Created with Sketch.</desc>
    <defs></defs>
    <g id="Design-Product" stroke="none" stroke-width="1" fill="none" fill-rule="evenodd" fill-opacity="0.6">
        <path d="M234.850306,29.8293166 L224.701357,5.55087853 L227.859748,5.55087853 L236.119171,25.9826604 L244.414988,5.55087853 L247.470099,5.55087853 L237.322133,29.8293166 L234.850306,29.8293166 Z M255.222566,29.6587336 L255.222566,5.55107945 L258.061282,5.55107945 L258.061282,29.6587336 L255.222566,29.6587336 Z M267.051237,26.1493254 L266.979433,26.0850303 L268.746007,23.9502316 L268.821745,24.0195497 C271.40177,26.4024874 273.708349,27.374951 276.782149,27.374951 C279.794965,27.374951 281.899903,25.7444671 281.899903,23.4107554 C281.899903,21.2990627 280.941861,19.9860359 275.890993,18.898042 C270.181103,17.6302227 267.956163,15.6682171 267.956163,11.9009252 C267.956163,7.99499704 271.231604,5.20921028 275.744434,5.20921028 C279.022826,5.20921028 281.501538,6.09427271 284.032382,8.16879477 L284.107137,8.22907144 L282.448761,10.4743774 L282.369088,10.4080731 C280.26415,8.65301735 278.136588,7.83526386 275.676565,7.83526386 C272.802439,7.83526386 270.793895,9.38136044 270.793895,11.5945188 C270.793895,13.7664882 271.764724,15.0473674 277.069365,16.2086979 C282.468433,17.4102129 284.771078,19.4626335 284.771078,23.0701922 C284.771078,27.2423424 281.520227,30 276.680837,30 C272.992277,30 269.933231,28.7763836 267.051237,26.1493254 Z M294.03015,29.6587336 L294.03015,5.55107945 L296.868865,5.55107945 L296.868865,29.6587336 L294.03015,29.6587336 Z M312.270717,29.6586331 L312.270717,8.24534614 L304.413593,8.24534614 L304.413593,5.55097899 L323,5.55097899 L323,8.24534614 L315.141892,8.24534614 L315.141892,29.6586331 L312.270717,29.6586331 Z M50.5321871,5.17083413 L54.7302599,5.17083413 L65.2874098,29.8521212 L60.2935917,29.8521212 L57.9191428,24.0806301 L47.2419918,24.0806301 L44.8350835,29.8521212 L39.9750372,29.8521212 L50.5321871,5.17083413 Z M48.9997134,19.7547744 L56.1614211,19.7547744 L52.5653212,11.255764 L48.9997134,19.7547744 Z M86.2464951,21.293035 L86.2464951,5.34181895 L90.8832606,5.34181895 L90.8832606,29.8523222 L86.9989613,29.8523222 L74.5306456,13.4229112 L74.5306456,29.8523222 L69.8948636,29.8523222 L69.8948636,5.34181895 L74.1470354,5.34181895 L86.2464951,21.293035 Z M96.649414,9.83815714 L96.649414,5.34151757 L116.232224,5.34151757 L116.232224,9.83815714 L108.808874,9.83815714 L108.808874,29.8520208 L104.072764,29.8520208 L104.072764,9.83815714 L96.649414,9.83815714 Z M126.868653,19.6743051 L126.868653,25.4930129 L140.278289,25.4930129 L140.278289,29.8520208 L122.165985,29.8520208 L122.165985,5.34151757 L140.111075,5.34151757 L140.111075,9.70153002 L126.868653,9.70153002 L126.868653,15.3152972 L138.606142,15.3152972 L138.606142,19.6743051 L126.868653,19.6743051 Z M155.936275,5.34212033 C163.315362,5.34212033 168.670167,10.4666419 168.670167,17.5290584 C168.670167,24.6979637 163.315362,29.8516189 155.936275,29.8516189 L146.913566,29.8516189 L146.913566,5.34212033 L155.936275,5.34212033 Z M155.936275,25.4242975 C160.620254,25.4242975 163.766841,22.3059845 163.766841,17.6646809 C163.766841,12.9882159 160.546483,9.76944174 155.936275,9.76944174 L151.616234,9.76944174 L151.616234,25.4242975 L155.936275,25.4242975 Z M179.607386,5.34191941 L179.607386,25.4240966 L191.913405,25.4240966 L191.913405,29.851418 L174.904718,29.851418 L174.904718,5.34191941 L179.607386,5.34191941 Z M202.557113,15.6352659 L209.014552,5.34201987 L214.439194,5.34201987 L204.89025,20.1118132 L204.89025,29.8515185 L200.154139,29.8515185 L200.154139,20.2152882 L190.606179,5.34201987 L196.197052,5.34201987 L202.557113,15.6352659 Z M37.8082296,0 L43.0676241,0 L30.443897,29.8520208 L25.9900841,29.8520208 L21.5480745,19.3829678 L17.1208191,29.8520208 L12.6670061,29.8520208 L-1.42108547e-14,0 L5.3921826,0 L14.9607985,23.7319296 L19.0595261,13.5190525 L13.3220943,0 L18.7152605,0 L21.6070914,7.17191911 L24.4851517,0 L29.7445461,0 L24.0985906,13.3512824 L28.2838764,23.7319296 L37.8082296,0 Z" id="visit-logo" fill="#000000"></path>
    </g>
</svg>